PathFileType	4	(X/Y/Z)	C:\Users\WrightLab\Desktop\Jo\P4V119.trc
DataRate	CameraRate	NumFrames	NumMarkers	Units	OrigDataRate	OrigDataStartFrame	OrigNumFrames
100.00	100.00	       64	19	mm	100.00	1	       697
Frame#	Time	Headset_Front			Headset_Back			Headset_Left			Headset_Right			Left_Shoulder			Right_Shoulder			Sternum			C7			Left Elbow			Right Elbow			Left Wrist			Right Wrist			Left ASIS			Right ASIS			S2			Left Knee			Right Knee			Left Ankle			Right Ankle			
		X1	Y1	Z1	X2	Y2	Z2	X3	Y3	Z3	X4	Y4	Z4	X5	Y5	Z5	X6	Y6	Z6	X7	Y7	Z7	X8	Y8	Z8	X9	Y9	Z9	X10	Y10	Z10	X11	Y11	Z11	X12	Y12	Z12	X13	Y13	Z13	X14	Y14	Z14	X15	Y15	Z15	X16	Y16	Z16	X17	Y17	Z17	X18	Y18	Z18	X19	Y19	Z19	

1	0.000																									187.06416	1141.08154	-1565.67041				128.68771	904.04584	-1374.94263													56.26308	510.48651	-1541.85913	-273.03571	513.77240	-1524.92444							
2	0.010																									186.67294	1141.23450	-1564.65137				124.34097	906.18347	-1372.31934													56.27335	510.51529	-1541.76379	-273.03308	513.75031	-1524.90125							
3	0.020																									185.77396	1142.06482	-1565.17126				121.80232	908.19110	-1372.68396													56.26989	510.52100	-1541.79785	-273.04294	513.78302	-1524.97644							
4	0.030																									184.74924	1142.42932	-1564.81311				118.38944	911.32312	-1370.00244													56.26588	510.48090	-1541.83154	-273.04083	513.78705	-1524.96313							
5	0.040																									184.11942	1142.13306	-1563.36121				117.52994	912.37836	-1371.11523													56.27545	510.57819	-1541.75122	-273.02957	513.80621	-1524.89075							
6	0.050																									183.75084	1142.22742	-1562.63379				113.90954	916.39758	-1361.93127													56.25784	510.47003	-1541.90759	-273.00543	513.88251	-1524.74402							
7	0.060																									183.38718	1142.32178	-1561.91187				112.71018	917.47284	-1359.72473													56.26793	510.53372	-1541.81836	-273.04993	513.79791	-1525.02795							
8	0.070																									183.07214	1142.39172	-1561.34192				109.95446	920.82947	-1354.25635													56.27028	510.53244	-1541.79553	-273.06012	513.77020	-1525.09094							
9	0.080																									182.16779	1142.66968	-1561.17114				108.05408	922.35583	-1355.23096													56.28606	510.55618	-1541.64648	-273.04416	513.80219	-1524.98950							
10	0.090																									181.31244	1142.92603	-1561.13623				107.30081	923.67688	-1358.95886													56.30055	510.64584	-1541.51807	-273.03812	513.78729	-1524.94458							
11	0.100																									180.76796	1142.61389	-1559.82080				103.22559	926.32147	-1352.44824													56.30894	510.69470	-1541.44312	-273.05371	513.75934	-1525.04443							
12	0.110																									180.49092	1142.69348	-1559.23730				102.58289	926.96973	-1352.77197													56.30245	510.65527	-1541.50085	-273.04819	513.78516	-1525.01282							
13	0.120																									180.25697	1142.74792	-1558.80383				102.48348	926.89111	-1353.73596													56.31681	510.68118	-1541.36584	-273.07452	513.70526	-1525.17383							
14	0.130																									180.02911	1142.78162	-1558.47180				100.08873	928.97668	-1347.10535													56.29248	510.62152	-1541.59265	-273.06033	513.75488	-1525.08875							
15	0.140																									179.68129	1142.25073	-1556.96423				98.29432	930.93921	-1342.56604													56.31764	510.67554	-1541.35718	-273.07529	513.70471	-1525.17871							
16	0.150																									179.47461	1142.29382	-1556.60608				98.17651	930.68756	-1343.69226													56.29477	510.59055	-1541.56689	-273.08923	513.66675	-1525.26514							
17	0.160																									179.33861	1142.31873	-1556.38599				98.04259	930.38763	-1344.97168													56.33381	510.76401	-1541.21240	-273.08215	513.75378	-1525.23755							
18	0.170																									179.19914	1142.32471	-1556.25134				97.13489	929.73309	-1345.86365													56.31955	510.73190	-1541.34558	-273.11914	513.61560	-1525.45715							
19	0.180																									179.11421	1142.32544	-1556.18274				96.34547	929.79346	-1347.57520													56.30875	510.62115	-1541.43616	-273.10318	513.68445	-1525.36487							
20	0.190																									179.03592	1142.32678	-1556.11646				96.57192	928.24847	-1351.22327													56.31091	510.63934	-1541.41760	-273.12131	513.63708	-1525.47717							
21	0.200																									178.96539	1142.31030	-1556.13831				95.75371	927.73370	-1351.24890													56.30471	510.56967	-1541.46863	-273.59235	513.49536	-1523.67773							
22	0.210																									178.94174	1142.26660	-1556.32202				95.56715	927.16150	-1353.01892													56.29512	510.60510	-1541.56531	-273.63608	513.45325	-1523.96619							
23	0.220																									178.95091	1142.23889	-1556.45715				95.50365	926.91235	-1353.61841													55.39305	511.43851	-1538.87402	-273.18420	513.51123	-1525.87708							
24	0.230																									178.94966	1142.19214	-1556.67224				95.49954	926.42035	-1353.63000													55.39238	511.38974	-1538.87439	-273.67685	513.35718	-1524.22168							
25	0.240																									178.97588	1142.12988	-1556.97974				95.73202	923.92719	-1354.92383													55.38370	511.34531	-1538.95239	-273.70773	513.27710	-1524.41345							
26	0.250																									179.01660	1142.02576	-1557.49158				95.96449	921.20496	-1356.20605													55.38605	511.36514	-1538.93225	-273.70511	513.25800	-1524.39111							
27	0.260																									179.08275	1141.92273	-1558.01807				95.94424	920.47015	-1356.36023													55.36681	511.29581	-1539.10864	-273.71555	513.21289	-1524.45154							
28	0.270																									179.11682	1141.80664	-1558.58044				97.63805	918.05676	-1361.89868													55.34822	511.20587	-1539.27612	-274.41156	513.91278	-1521.96875							
29	0.280																									179.18303	1141.67834	-1559.22388				99.55271	916.16089	-1365.35510													55.32022	511.09476	-1539.53149	-274.47067	513.73187	-1522.32898							
30	0.290																									179.25252	1141.53430	-1559.94287				100.16124	915.35602	-1365.50964													55.31180	511.07132	-1539.60950	-275.01157	513.85675	-1520.25684							
31	0.300																									179.35912	1141.38953	-1560.69385				100.80636	912.61438	-1364.61279													55.30140	511.06784	-1539.70923	-275.00018	513.92853	-1520.19629							
32	0.310																									179.47456	1141.24390	-1561.45593				103.18443	909.32074	-1368.89648													55.28672	510.96472	-1539.83740	-275.00555	513.87079	-1520.21924							
33	0.320																									179.55971	1141.07825	-1562.28748				105.12132	907.60614	-1370.51672													54.39324	511.96146	-1537.39099	-274.99292	513.90710	-1520.14172							
34	0.330																									179.71004	1140.89502	-1563.25049				106.68851	905.47638	-1371.68176													54.40418	511.98395	-1537.28882	-275.00720	513.86499	-1520.22925							
35	0.340																									179.96643	1141.27844	-1565.37219				108.31099	902.68396	-1374.66162													54.40043	511.94870	-1537.32031	-275.03030	513.81580	-1520.37488							
36	0.350																									180.10854	1141.08716	-1566.36719				110.29554	899.83954	-1379.75000													54.37923	511.89749	-1537.51758	-275.04050	513.78180	-1520.43628							
37	0.360																									180.55133	1141.27380	-1568.18677				114.38071	897.09625	-1385.11597													54.39590	511.93207	-1537.36169	-275.02557	513.80267	-1520.33972							
38	0.370																									180.70680	1141.06665	-1569.26599				115.38222	894.47198	-1386.57751													54.38095	511.86496	-1537.49670	-275.01218	513.79089	-1520.24548							
39	0.380																									182.02048	1140.44983	-1569.50073				116.63349	892.27185	-1390.57300													54.36771	511.85873	-1537.62329	-275.02664	513.77344	-1520.33997							
40	0.390																									182.18471	1140.23425	-1570.62549				119.25456	888.94031	-1393.54358													54.37303	511.80478	-1537.56519	-275.06342	513.63641	-1520.55823							
41	0.400																									182.42041	1140.00244	-1571.88208				121.24454	886.81226	-1398.29761													54.36824	511.77423	-1537.60730	-275.03290	513.70459	-1520.36646							
42	0.410																									182.65120	1139.78015	-1573.09106				124.25214	884.13965	-1402.26489													54.35311	511.73022	-1537.74707	-275.05444	513.63940	-1520.49768							
43	0.420																									182.89536	1139.52820	-1574.44922				126.29472	881.85138	-1406.69128													54.36727	511.76318	-1537.61511	-275.03094	513.70764	-1520.35388							
44	0.430																									184.19930	1137.81799	-1572.48425				129.13147	879.20459	-1410.60278													54.35175	511.67242	-1537.75256	-275.04037	513.63501	-1520.40100							
45	0.440																									184.63954	1138.17114	-1574.88696				131.43892	876.55664	-1414.52026													54.34819	511.61911	-1537.77979	-274.99887	513.71289	-1520.13660							
46	0.450																									185.19658	1138.30994	-1577.00879				134.08397	874.03247	-1418.98572													54.36288	511.67325	-1537.64551	-275.00760	513.72302	-1520.19861							
47	0.460																									185.48940	1138.06628	-1578.36792				135.76947	871.66742	-1423.04944													54.37477	511.65683	-1537.52893	-274.98550	513.71680	-1520.04663							
48	0.470																									185.84358	1137.82275	-1579.77661				138.37022	869.85144	-1428.24841													54.36469	511.63104	-1537.62256	-274.93521	513.81384	-1519.72693							
49	0.480																									186.24106	1138.34558	-1582.62183				140.27667	867.90485	-1432.54126													54.36164	511.58566	-1537.64587	-274.96848	513.73792	-1519.93555							
50	0.490																									186.52710	1139.29663	-1586.48840				142.62332	866.79486	-1438.19995													54.37451	511.60358	-1537.52441	-274.95316	513.76215	-1519.83679							
51	0.500																									186.91945	1139.04028	-1587.99316				144.86287	864.68597	-1441.96362													54.38423	511.60730	-1537.43140	-274.93857	513.78040	-1519.74182							
52	0.510																									187.30862	1138.80896	-1589.38098				146.61247	863.84467	-1447.20215													54.38054	511.57483	-1537.46252	-274.94730	513.71863	-1519.78662							
53	0.520																									188.78879	1139.03772	-1591.54004				149.22014	862.40063	-1451.28040													53.96802	511.42111	-1535.92310	-274.91272	513.81055	-1519.57300							
54	0.530																									189.21362	1138.80774	-1592.95215				150.99602	860.82556	-1454.74658													53.96935	511.37097	-1535.90381	-274.94116	513.74548	-1519.75122							
55	0.540																									189.91682	1138.94409	-1594.97705				153.38237	859.70135	-1458.60498													53.27476	511.88879	-1533.85840	-274.92026	513.76349	-1519.61304							
56	0.550																									190.45277	1139.33960	-1597.50122				155.23096	859.04272	-1462.94495													53.28844	511.93726	-1533.73340	-274.90063	513.77295	-1519.48169							
57	0.560																									190.94308	1139.89490	-1600.28479				157.01770	858.47284	-1467.21130													53.29581	511.91983	-1533.66052	-274.90875	513.78638	-1519.54016							
58	0.570																									191.33759	1139.70837	-1601.47681				158.96704	857.86053	-1471.27478													53.29507	511.93277	-1533.66919	-274.91183	513.75165	-1519.55286							
59	0.580																									191.62321	1140.71106	-1605.12939				160.27271	857.15283	-1474.65759													53.27460	511.86572	-1533.85693	-274.88794	513.82715	-1519.40796							
60	0.590																									191.97437	1140.51318	-1606.34192				161.75012	856.29218	-1477.65344													53.29300	511.89578	-1533.68420	-274.91119	513.73334	-1519.54419							
61	0.600																									192.30174	1140.35120	-1607.36938				163.40727	855.79675	-1480.89490													53.28796	511.84558	-1533.72607	-274.88174	513.82404	-1519.36511							
62	0.610																									192.63335	1140.21008	-1608.30444				165.26640	854.94910	-1483.51367													53.29970	511.88229	-1533.61829	-274.88367	513.79852	-1519.37219							
63	0.620																									192.80252	1141.25989	-1611.64893				166.03574	854.39453	-1486.08203													53.29010	511.85294	-1533.70654	-274.87314	513.81140	-1519.30347							
64	0.630																									193.03717	1141.12561	-1612.47290				167.00569	854.16394	-1488.94128													53.27999	511.79248	-1533.79578	-274.88394	513.81421	-1519.37769							
